<?xml version="1.0" standalone="no"?>
<!DOCTYPE svg PUBLIC "-//W3C//DTD SVG 20010904//EN"
 "http://www.w3.org/TR/2001/REC-SVG-20010904/DTD/svg10.dtd">
<svg version="1.0" xmlns="http://www.w3.org/2000/svg"
 width="512.000000pt" height="512.000000pt" viewBox="0 0 512.000000 512.000000"
 preserveAspectRatio="xMidYMid meet">
<metadata>
Created by potrace 1.11, written by Peter Selinger 2001-2013
</metadata>
<g transform="translate(0.000000,512.000000) scale(0.100000,-0.100000)"
fill="#000000" stroke="none">
<path d="M1683 4604 c-50 -13 -145 -75 -172 -113 -10 -14 -29 -46 -42 -71
l-24 -45 0 -1815 0 -1815 27 -59 c43 -90 127 -161 218 -182 19 -4 411 -8 870
-9 921 -1 876 -4 971 62 26 18 61 54 78 80 65 97 61 -28 58 1943 l-2 1795 -28
54 c-37 70 -97 128 -166 159 l-56 26 -844 1 c-590 0 -857 -3 -888 -11z m1062
-374 c20 -17 19 -47 -2 -58 -10 -5 -98 -9 -196 -8 -146 1 -179 4 -187 16 -22
34 -4 57 50 62 88 8 321 0 335 -12z m683 -319 l32 -1 0 -1378 0 -1377 -902 0
-903 0 -3 1377 -2 1377 52 3 c41 2 1576 1 1726 -1z m-809 -2910 c29 -16 63
-59 76 -97 23 -68 4 -128 -57 -177 -99 -79 -241 -14 -255 117 -5 44 19 109 51
135 42 35 138 47 185 22z"/>
</g>
</svg>
